<svg width="169" height="56" viewBox="0 0 169 56" fill="none" xmlns="http://www.w3.org/2000/svg">
<path d="M73.0401 11.7598C72.6901 11.7598 72.4 11.9098 72.16 12.2198C71.92 12.5298 71.8 12.9198 71.8 13.3898C71.8 13.8798 71.9301 14.2798 72.1801 14.5898C72.4301 14.8998 72.75 15.0498 73.11 15.0498C73.46 15.0498 73.7501 14.8898 73.9901 14.5798C74.2301 14.2698 74.3501 13.8798 74.3501 13.4098C74.3501 12.9198 74.22 12.5098 73.97 12.2098C73.73 11.9098 73.4201 11.7598 73.0401 11.7598Z" fill="#D7C2FF"/>
<path d="M79.91 11.79C79.81 11.79 79.67 11.8 79.49 11.82C79.51 12.29 79.53 12.79 79.53 13.3C79.53 13.87 79.54 14.43 79.57 14.98C79.72 15.01 79.88 15.03 80.03 15.03C80.54 15.03 80.92 14.87 81.16 14.56C81.4 14.24 81.53 13.86 81.53 13.41C81.53 12.96 81.4 12.57 81.13 12.26C80.86 11.94 80.45 11.79 79.91 11.79Z" fill="#D7C2FF"/>
<path d="M91.52 11.7402C91.35 11.7402 91.17 11.7602 90.99 11.7902C91.02 12.2402 91.03 12.7402 91.03 13.3102C91.09 13.3102 91.16 13.3202 91.24 13.3202C92.1 13.3202 92.53 13.0502 92.53 12.5002C92.53 12.0002 92.2 11.7402 91.52 11.7402Z" fill="#D7C2FF"/>
<path d="M87.0099 11.73C87.0099 11.82 86.7999 12.48 86.3799 13.71H87.6699C87.2699 12.49 87.0599 11.83 87.0599 11.73H87.0099Z" fill="#D7C2FF"/>
<path d="M53.5001 11.73C53.5001 11.82 53.2901 12.48 52.8701 13.71H54.1601C53.7601 12.49 53.5501 11.83 53.5501 11.73H53.5001Z" fill="#676099"/>
<path d="M68.0202 11.75C67.8002 11.75 67.6002 11.77 67.4302 11.8C67.4602 12.17 67.4702 12.64 67.4702 13.23C67.6002 13.23 67.7102 13.24 67.8002 13.24C68.5502 13.24 68.9302 12.98 68.9302 12.46C68.9202 11.98 68.6202 11.75 68.0202 11.75Z" fill="#D7C2FF"/>
<path d="M62.93 11.79C62.83 11.79 62.69 11.8 62.51 11.82C62.53 12.29 62.55 12.79 62.55 13.3C62.55 13.87 62.56 14.43 62.59 14.98C62.74 15.01 62.9 15.03 63.05 15.03C63.56 15.03 63.94 14.87 64.18 14.56C64.42 14.24 64.55 13.86 64.55 13.41C64.55 12.96 64.42 12.57 64.15 12.26C63.88 11.94 63.48 11.79 62.93 11.79Z" fill="#D7C2FF"/>
<path d="M102.36 11.7598C102.01 11.7598 101.72 11.9098 101.48 12.2198C101.24 12.5298 101.12 12.9198 101.12 13.3898C101.12 13.8798 101.25 14.2798 101.5 14.5898C101.75 14.8998 102.07 15.0498 102.43 15.0498C102.78 15.0498 103.07 14.8898 103.31 14.5798C103.55 14.2698 103.67 13.8798 103.67 13.4098C103.67 12.9198 103.54 12.5098 103.29 12.2098C103.05 11.9098 102.73 11.7598 102.36 11.7598Z" fill="#D7C2FF"/>
<path d="M95.78 11.7402C95.61 11.7402 95.43 11.7602 95.25 11.7902C95.28 12.2402 95.29 12.7402 95.29 13.3102C95.35 13.3102 95.42 13.3202 95.5 13.3202C96.36 13.3202 96.79 13.0502 96.79 12.5002C96.79 12.0002 96.45 11.7402 95.78 11.7402Z" fill="#D7C2FF"/>
<path d="M86.5299 28.3799C85.5399 28.3799 84.6799 28.7499 83.9499 29.4899C83.2199 30.2299 82.8599 31.2099 82.8599 32.4399C82.8599 33.6599 83.2199 34.6399 83.9499 35.3899C84.6799 36.1299 85.5399 36.4999 86.5299 36.4999C87.5199 36.4999 88.3799 36.1299 89.1099 35.3899C89.8399 34.6499 90.1999 33.6699 90.1999 32.4399C90.1999 31.2199 89.8399 30.2399 89.1099 29.4899C88.3799 28.7499 87.5199 28.3799 86.5299 28.3799Z" fill="#D7C2FF"/>
<path d="M74.2701 28.3799C73.2801 28.3799 72.4201 28.7499 71.6901 29.4899C70.9601 30.2299 70.6001 31.2099 70.6001 32.4399C70.6001 33.6599 70.9601 34.6399 71.6901 35.3899C72.4201 36.1299 73.2701 36.4999 74.2701 36.4999C75.2601 36.4999 76.1201 36.1299 76.8501 35.3899C77.5801 34.6499 77.9401 33.6699 77.9401 32.4399C77.9401 31.2199 77.5801 30.2399 76.8501 29.4899C76.1201 28.7499 75.2601 28.3799 74.2701 28.3799Z" fill="#D7C2FF"/>
<path d="M132.47 23.6602H128.94V29.3902H132.47C133.36 29.3902 134.07 29.0902 134.6 28.5002C135.14 27.9002 135.4 27.2502 135.4 26.5302C135.4 25.8102 135.13 25.1502 134.6 24.5602C134.07 23.9602 133.35 23.6602 132.47 23.6602Z" fill="#D7C2FF"/>
<path d="M145.26 33.1498C144.74 33.5898 144.48 34.1098 144.48 34.7098C144.48 35.2598 144.72 35.6998 145.19 36.0198C145.66 36.3398 146.21 36.4998 146.82 36.4998C147.69 36.4998 148.48 36.1698 149.19 35.5298C149.9 34.8798 150.26 34.1098 150.26 33.2298C149.66 32.7398 148.77 32.4998 147.58 32.4998C146.55 32.4898 145.78 32.7098 145.26 33.1498Z" fill="#D7C2FF"/>
<path d="M115.09 28.3799C114.31 28.3799 113.63 28.6199 113.06 29.1099C112.49 29.5999 112.09 30.2599 111.88 31.0799H118.39C118.34 30.4399 118.05 29.8299 117.51 29.2499C116.97 28.6699 116.16 28.3799 115.09 28.3799Z" fill="#D7C2FF"/>
<path d="M98.6999 28.3799C97.7199 28.3799 96.8799 28.7499 96.1799 29.4899C95.4799 30.2299 95.1299 31.2099 95.1299 32.4399C95.1299 33.6599 95.4799 34.6399 96.1799 35.3899C96.8799 36.1299 97.7199 36.4999 98.6999 36.4999C99.6899 36.4999 100.54 36.1299 101.23 35.3999C101.93 34.6699 102.27 33.6799 102.27 32.4399C102.27 31.1999 101.92 30.2199 101.23 29.4799C100.54 28.7499 99.6999 28.3799 98.6999 28.3799Z" fill="#D7C2FF"/>
<path d="M161.45 0H7.47C3.35 0 0 3.34 0 7.47V47.79C0 51.91 3.34 55.26 7.47 55.26H161.45C165.57 55.26 168.92 51.92 168.92 47.79V7.47C168.91 3.35 165.57 0 161.45 0ZM94.33 11.1H94.95C95.04 11.1 95.21 11.1 95.45 11.09C95.7 11.08 95.91 11.08 96.1 11.08C96.55 11.08 96.93 11.18 97.24 11.39C97.55 11.59 97.7 11.9 97.7 12.32C97.7 12.89 97.49 13.3 97.07 13.57C96.65 13.84 96.14 13.97 95.52 13.97C95.41 13.97 95.33 13.97 95.28 13.96C95.28 14.4 95.29 14.99 95.32 15.72H94.32C94.35 15.04 94.37 14.23 94.37 13.3C94.38 12.45 94.36 11.71 94.33 11.1ZM85.64 13.45C86.19 12.03 86.47 11.25 86.47 11.1H87.81C87.81 11.23 88.06 12.01 88.56 13.41C89.06 14.82 89.31 15.59 89.31 15.71H88.17C88.17 15.55 88.06 15.11 87.85 14.38H86.21C85.99 15.1 85.88 15.54 85.88 15.71H84.81C84.81 15.62 85.09 14.87 85.64 13.45ZM78.59 11.1H79.21C79.31 11.1 79.46 11.1 79.66 11.09C79.86 11.08 79.99 11.08 80.05 11.08C80.9 11.08 81.52 11.29 81.91 11.72C82.29 12.15 82.49 12.66 82.49 13.25C82.49 13.92 82.27 14.51 81.84 15.01C81.41 15.51 80.81 15.76 80.03 15.76C79.68 15.76 79.2 15.75 78.58 15.72C78.61 15.01 78.63 14.2 78.63 13.3C78.63 12.44 78.62 11.7 78.59 11.1ZM76.34 11.1H77.34C77.31 11.7 77.29 12.43 77.29 13.3C77.29 14.19 77.31 15 77.34 15.72H76.34C76.37 14.99 76.39 14.18 76.39 13.3C76.39 12.44 76.37 11.7 76.34 11.1ZM71.49 11.71C71.93 11.23 72.48 10.99 73.14 10.99C73.76 10.99 74.29 11.21 74.71 11.65C75.13 12.09 75.34 12.65 75.34 13.32C75.34 14.05 75.12 14.65 74.67 15.13C74.23 15.61 73.68 15.85 73.02 15.85C72.4 15.85 71.87 15.63 71.45 15.19C71.03 14.75 70.82 14.19 70.82 13.52C70.82 12.79 71.05 12.18 71.49 11.71ZM61.61 11.1H62.23C62.33 11.1 62.48 11.1 62.68 11.09C62.88 11.08 63.01 11.08 63.07 11.08C63.92 11.08 64.54 11.29 64.93 11.72C65.31 12.15 65.51 12.66 65.51 13.25C65.51 13.92 65.29 14.51 64.86 15.01C64.43 15.51 63.83 15.76 63.05 15.76C62.7 15.76 62.22 15.75 61.6 15.72C61.63 15.01 61.65 14.2 61.65 13.3C61.66 12.44 61.64 11.7 61.61 11.1ZM56.57 11.1H57.62C57.62 11.23 57.91 11.73 58.5 12.6C59.12 13.53 59.48 14.16 59.57 14.49H59.62C59.56 13.96 59.53 13.49 59.53 13.07C59.53 12.43 59.51 11.77 59.48 11.1H60.37C60.34 11.69 60.32 12.42 60.32 13.3C60.32 14.19 60.34 14.99 60.37 15.72H59.49C59.49 15.62 59.16 15.11 58.51 14.18C57.83 13.2 57.44 12.54 57.35 12.18H57.29C57.35 12.7 57.38 13.17 57.38 13.58C57.38 14.16 57.4 14.88 57.43 15.72H56.56C56.6 14.99 56.61 14.18 56.61 13.3C56.62 12.44 56.6 11.7 56.57 11.1ZM52.13 13.45C52.68 12.03 52.96 11.25 52.96 11.1H54.3C54.3 11.23 54.55 12.01 55.05 13.41C55.55 14.82 55.8 15.59 55.8 15.71H54.66C54.66 15.55 54.55 15.11 54.34 14.38H52.7C52.48 15.1 52.37 15.54 52.37 15.71H51.3C51.3 15.62 51.58 14.87 52.13 13.45ZM14.72 11.81C21.9 15.83 29.08 19.86 36.26 23.87C36.59 24.05 36.58 24.16 36.33 24.41C34.72 25.99 33.13 27.58 31.54 29.18C31.37 29.35 31.26 29.45 31.03 29.22C25.32 23.39 19.6 17.58 13.88 11.76C13.83 11.71 13.79 11.65 13.7 11.53C14.13 11.52 14.43 11.65 14.72 11.81ZM12.51 47.29C11.91 46.83 11.68 46.21 11.68 45.47C11.68 42.36 11.68 39.26 11.67 36.15C11.67 33.95 11.67 31.76 11.67 29.56H11.68C11.68 24.32 11.68 19.07 11.68 13.83C11.68 13.19 11.8 12.6 12.26 12.11C12.44 11.92 12.56 11.87 12.78 12.09C16.31 15.69 19.84 19.28 23.38 22.87C25.67 25.2 27.96 27.52 30.26 29.84C30.48 30.06 30.5 30.18 30.27 30.42C24.65 36.01 19.03 41.61 13.43 47.22C13.08 47.58 12.84 47.54 12.51 47.29ZM35.64 35.9C28.95 39.56 22.26 43.24 15.58 46.91C15.47 46.97 15.37 47.07 15.31 47.11C20.52 41.84 25.74 36.58 30.94 31.3C31.26 30.97 31.41 31.02 31.7 31.32C33.02 32.7 34.36 34.05 35.71 35.4C35.94 35.63 35.96 35.72 35.64 35.9ZM44.35 31.03C44.04 31.26 43.69 31.45 43.35 31.64C41.33 32.76 39.3 33.87 37.28 34.99C37.01 35.14 36.85 35.14 36.62 34.9C35.18 33.42 33.73 31.94 32.28 30.48C32.07 30.27 32.06 30.15 32.28 29.94C33.98 28.27 35.67 26.58 37.35 24.89C37.55 24.69 37.69 24.67 37.94 24.81C39.94 25.94 41.95 27.06 43.95 28.18C44.57 28.53 45.05 28.98 45.08 29.71C45.05 30.31 44.78 30.72 44.35 31.03ZM65.58 35.99C64.04 37.61 62.03 38.42 59.55 38.42C57.18 38.42 55.17 37.6 53.51 35.96C51.85 34.32 51.02 32.28 51.02 29.85C51.02 27.42 51.85 25.38 53.51 23.74C55.17 22.1 57.18 21.28 59.55 21.28C60.73 21.28 61.85 21.51 62.92 21.97C63.99 22.43 64.85 23.04 65.49 23.8L64.05 25.24C62.96 23.94 61.47 23.29 59.56 23.29C57.83 23.29 56.34 23.9 55.08 25.11C53.82 26.32 53.19 27.9 53.19 29.84C53.19 31.78 53.82 33.36 55.08 34.57C56.34 35.78 57.83 36.39 59.56 36.39C61.39 36.39 62.92 35.78 64.15 34.56C64.94 33.77 65.4 32.66 65.53 31.24H59.57V29.28H67.53C67.61 29.71 67.64 30.12 67.64 30.52C67.62 32.81 66.94 34.63 65.58 35.99ZM67.47 13.87C67.47 14.48 67.48 15.09 67.5 15.71H66.51C66.54 15 66.56 14.19 66.56 13.29C66.56 12.43 66.54 11.69 66.51 11.09H67.12C67.19 11.09 67.34 11.09 67.57 11.08C67.8 11.07 68 11.07 68.2 11.07C69.29 11.07 69.83 11.44 69.83 12.18C69.83 12.77 69.52 13.18 68.9 13.41V13.46C69.14 13.53 69.35 13.71 69.53 14.02C69.71 14.33 69.95 14.89 70.26 15.7H69.21C68.94 14.86 68.73 14.35 68.58 14.15C68.43 13.95 68.2 13.86 67.87 13.86C67.73 13.87 67.6 13.87 67.47 13.87ZM78.41 36.72C77.32 37.86 75.94 38.43 74.26 38.43C72.58 38.43 71.2 37.86 70.11 36.72C69.02 35.58 68.48 34.16 68.48 32.44C68.48 30.73 69.02 29.3 70.11 28.16C71.19 27.02 72.58 26.45 74.26 26.45C75.94 26.45 77.32 27.02 78.41 28.16C79.49 29.3 80.04 30.72 80.04 32.44C80.04 34.15 79.5 35.58 78.41 36.72ZM90.68 36.72C89.59 37.86 88.21 38.43 86.53 38.43C84.85 38.43 83.47 37.86 82.38 36.72C81.29 35.58 80.75 34.16 80.75 32.44C80.75 30.73 81.29 29.3 82.38 28.16C83.46 27.02 84.85 26.45 86.53 26.45C88.21 26.45 89.59 27.02 90.68 28.16C91.76 29.3 92.31 30.72 92.31 32.44C92.31 34.15 91.76 35.58 90.68 36.72ZM91.27 13.96C91.16 13.96 91.08 13.96 91.03 13.95C91.03 14.39 91.04 14.98 91.07 15.71H90.07C90.1 15.03 90.12 14.22 90.12 13.29C90.12 12.44 90.1 11.7 90.07 11.09H90.69C90.78 11.09 90.95 11.09 91.19 11.08C91.44 11.07 91.65 11.07 91.84 11.07C92.29 11.07 92.67 11.17 92.98 11.38C93.29 11.58 93.44 11.89 93.44 12.31C93.44 12.88 93.23 13.29 92.81 13.56C92.4 13.83 91.88 13.96 91.27 13.96ZM104.3 37.48C104.3 39.41 103.74 40.87 102.63 41.87C101.51 42.87 100.15 43.37 98.55 43.37C97.22 43.37 96.14 43.04 95.29 42.37C94.45 41.7 93.85 40.94 93.48 40.09L95.41 39.29C95.62 39.9 96.02 40.41 96.59 40.83C97.16 41.24 97.82 41.45 98.55 41.45C99.71 41.45 100.62 41.1 101.29 40.41C101.96 39.71 102.29 38.77 102.29 37.58V36.5H102.2C101.83 37.05 101.31 37.51 100.64 37.88C99.97 38.25 99.21 38.43 98.37 38.43C96.92 38.43 95.66 37.86 94.61 36.71C93.56 35.56 93.03 34.14 93.03 32.45C93.03 30.75 93.56 29.33 94.61 28.19C95.66 27.04 96.92 26.47 98.37 26.47C99.21 26.47 99.97 26.65 100.64 27.02C101.31 27.39 101.83 27.85 102.2 28.4H102.29V26.84H104.31V37.48H104.3ZM103.99 15.13C103.55 15.61 103 15.85 102.34 15.85C101.72 15.85 101.19 15.63 100.77 15.19C100.35 14.75 100.14 14.19 100.14 13.52C100.14 12.79 100.36 12.19 100.81 11.71C101.25 11.23 101.8 10.99 102.46 10.99C103.08 10.99 103.61 11.21 104.03 11.65C104.45 12.09 104.66 12.65 104.66 13.32C104.66 14.05 104.44 14.65 103.99 15.13ZM108.4 38.06H106.29V21.64H108.4V38.06ZM109.47 15.72H108.59C108.59 15.62 108.26 15.11 107.61 14.18C106.93 13.2 106.54 12.54 106.45 12.18H106.39C106.45 12.7 106.48 13.17 106.48 13.58C106.48 14.16 106.5 14.88 106.53 15.72H105.66C105.7 14.99 105.71 14.18 105.71 13.3C105.71 12.44 105.69 11.7 105.66 11.1H106.71C106.71 11.23 107 11.73 107.59 12.6C108.21 13.53 108.57 14.16 108.66 14.49H108.71C108.65 13.96 108.62 13.49 108.62 13.07C108.62 12.43 108.6 11.77 108.57 11.1H109.46C109.43 11.69 109.41 12.42 109.41 13.3C109.42 14.19 109.43 14.99 109.47 15.72ZM120.62 32.83H111.75C111.81 33.96 112.19 34.86 112.88 35.51C113.58 36.17 114.39 36.5 115.32 36.5C116.83 36.5 117.86 35.86 118.39 34.57L120.27 35.35C119.9 36.22 119.3 36.95 118.46 37.54C117.62 38.13 116.59 38.42 115.37 38.42C113.67 38.42 112.29 37.85 111.23 36.72C110.17 35.59 109.64 34.16 109.64 32.43C109.64 30.79 110.16 29.39 111.19 28.21C112.22 27.03 113.54 26.45 115.14 26.45C116.81 26.45 118.14 26.99 119.14 28.08C120.14 29.16 120.64 30.62 120.64 32.44L120.62 32.83ZM136.03 30.02C135.01 30.94 133.81 31.41 132.42 31.41H128.94V38.06H126.83V21.64H132.42C133.81 21.64 135.01 22.1 136.03 23.03C137.05 23.96 137.55 25.12 137.55 26.53C137.56 27.93 137.05 29.1 136.03 30.02ZM141.04 38.06H138.93V21.64H141.04V38.06ZM152.27 38.06H150.25V36.5H150.16C149.32 37.78 148.09 38.43 146.47 38.43C145.28 38.43 144.28 38.09 143.48 37.4C142.68 36.71 142.28 35.8 142.28 34.67C142.28 33.45 142.75 32.49 143.7 31.79C144.65 31.09 145.82 30.75 147.21 30.75C148.45 30.75 149.46 30.98 150.26 31.44V31.12C150.26 30.29 149.98 29.63 149.41 29.14C148.84 28.64 148.15 28.39 147.32 28.39C146.71 28.39 146.15 28.54 145.66 28.83C145.16 29.12 144.82 29.52 144.64 30.02L142.71 29.19C142.97 28.52 143.48 27.9 144.25 27.32C145.01 26.75 146.02 26.46 147.28 26.46C148.72 26.46 149.91 26.88 150.86 27.72C151.81 28.56 152.28 29.75 152.28 31.27V38.06H152.27ZM156.86 43.01H154.68L157.29 37.35L152.66 26.83H154.95L158.3 34.9H158.35L161.6 26.83H163.89L156.86 43.01Z" fill="#D7C2FF"/>
</svg>
