<svg width="160" height="57" viewBox="0 0 160 57" fill="none" xmlns="http://www.w3.org/2000/svg">
<path d="M20.97 14.9109H23.98C24.18 14.9109 24.34 14.7509 24.34 14.5609C24.34 14.3609 24.18 14.2009 23.98 14.2009H20.97C20.78 14.2009 20.61 14.3609 20.61 14.5609C20.61 14.7509 20.77 14.9109 20.97 14.9109ZM22.47 41.3209C21.61 41.3209 20.9 42.0309 20.9 42.8909C20.9 43.7509 21.6 44.4609 22.47 44.4609C23.34 44.4609 24.04 43.7609 24.04 42.8909C24.04 42.0209 23.34 41.3209 22.47 41.3209ZM14.79 39.9809H30.17V17.2309H14.79V39.9809ZM64.08 32.5109C63.35 32.5109 62.69 32.7509 62.1 33.2309C61.51 33.7209 61.12 34.3509 60.94 35.1409C60.85 35.5109 60.81 35.8109 60.81 36.0409V38.2509C60.81 39.2209 61.1 40.0409 61.7 40.7009C62.29 41.3609 63.06 41.7009 64.01 41.7009C65.12 41.7009 65.99 41.2709 66.61 40.4109C67.23 39.5509 67.54 38.4209 67.54 37.0109C67.54 35.7209 67.25 34.6509 66.67 33.8109C66.02 32.9509 65.16 32.5109 64.08 32.5109ZM118.01 32.3209C116.83 32.3209 115.92 32.8509 115.31 33.9009C114.77 34.7709 114.51 35.8309 114.51 37.0909C114.51 38.3109 114.77 39.3609 115.31 40.2309C115.94 41.2809 116.84 41.8109 117.99 41.8109C119.11 41.8109 120 41.2809 120.64 40.2009C121.19 39.3209 121.47 38.2609 121.47 37.0409C121.47 35.8209 121.21 34.7709 120.68 33.9009C120.04 32.8509 119.16 32.3209 118.01 32.3209ZM78.7 32.5109C77.97 32.5109 77.31 32.7509 76.72 33.2309C76.13 33.7209 75.74 34.3509 75.55 35.1409C75.46 35.5109 75.42 35.8109 75.42 36.0409V38.2509C75.42 39.2209 75.71 40.0409 76.31 40.7009C76.9 41.3609 77.67 41.7009 78.62 41.7009C79.74 41.7009 80.6 41.2709 81.23 40.4109C81.85 39.5509 82.16 38.4209 82.16 37.0109C82.16 35.7209 81.87 34.6509 81.28 33.8109C80.64 32.9509 79.78 32.5109 78.7 32.5109ZM48.16 27.7509H48.1C47.91 28.5409 47.63 29.6909 47.22 31.2309L45.69 36.0509H50.64L49.09 31.2309C48.92 30.7309 48.61 29.5709 48.16 27.7509ZM140.43 32.1809C139.47 32.1809 138.68 32.5909 138.08 33.3909C137.59 34.0309 137.29 34.7909 137.2 35.6809H143.36C143.38 34.8109 143.19 34.0509 142.79 33.4109C142.27 32.6009 141.48 32.1809 140.43 32.1809ZM61.19 19.0509C61.23 18.9209 61.23 18.8009 61.23 18.6709V17.7309C60.01 17.7209 58.84 17.9709 58.84 19.0109C58.84 19.6909 59.28 20.0009 59.82 20.0009C60.53 19.9909 61.02 19.5409 61.19 19.0509ZM45.06 14.7509C44.88 14.1709 44.72 13.5309 44.58 12.9809H44.55C44.41 13.5309 44.26 14.1909 44.1 14.7509L43.37 17.0909H45.8L45.06 14.7509ZM152.39 0.940918H6.72C3.02 0.940918 0 3.96092 0 7.66092V49.5209C0 53.2209 3.02 56.2309 6.72 56.2309H152.39C156.1 56.2309 159.11 53.2209 159.11 49.5209V7.66092C159.12 3.96092 156.1 0.940918 152.39 0.940918ZM143.16 14.0709C145.38 14.0709 146.12 15.9009 146.12 17.4009C146.12 17.7209 146.09 17.9809 146.06 18.1309H141.47C141.51 19.3709 142.47 19.9009 143.58 19.9009C144.38 19.9009 144.95 19.7709 145.48 19.5909L145.73 20.7709C145.14 21.0209 144.32 21.2109 143.34 21.2109C141.12 21.2109 139.81 19.8509 139.81 17.7509C139.81 15.8609 140.96 14.0709 143.16 14.0709ZM115.7 14.2309L115.78 15.2609H115.82C116.13 14.7209 116.87 14.0809 118.01 14.0809C119.21 14.0809 120.44 14.8509 120.44 17.0209V21.0909H118.71V17.2209C118.71 16.2409 118.34 15.4909 117.4 15.4909C116.71 15.4909 116.23 15.9809 116.05 16.5009C115.99 16.6409 115.97 16.8509 115.97 17.0509V21.0909H114.24V16.2809C114.24 15.4909 114.21 14.8309 114.18 14.2409H115.7V14.2309ZM97.52 14.0709C99.74 14.0709 100.48 15.9009 100.48 17.4009C100.48 17.7209 100.45 17.9809 100.42 18.1309H95.83C95.87 19.3709 96.83 19.9009 97.94 19.9009C98.74 19.9009 99.3 19.7709 99.84 19.5909L100.09 20.7709C99.5 21.0209 98.68 21.2109 97.7 21.2109C95.48 21.2109 94.17 19.8509 94.17 17.7509C94.17 15.8609 95.33 14.0709 97.52 14.0709ZM90.43 11.0909H92.16V21.0809H90.43V11.0909ZM76.71 15.2909C76.03 15.2909 75.33 15.5009 74.87 15.8009L74.53 14.6709C75.04 14.3609 75.92 14.0709 77.01 14.0709C79.21 14.0709 79.84 15.4609 79.84 16.9709V19.4309C79.84 20.0509 79.87 20.6509 79.95 21.0809H78.39L78.26 20.3209H78.22C77.81 20.8509 77.09 21.2409 76.19 21.2409C74.81 21.2409 74.04 20.2409 74.04 19.2009C74.04 17.4809 75.57 16.6009 78.11 16.6109V16.5009C78.1 16.0409 77.91 15.2909 76.71 15.2909ZM66.47 11.3709C67.06 11.3709 67.43 11.7809 67.44 12.3109C67.44 12.8209 67.06 13.2409 66.45 13.2409C65.87 13.2409 65.49 12.8209 65.49 12.3109C65.5 11.7809 65.9 11.3709 66.47 11.3709ZM67.33 14.2309V21.0809H65.6V14.2309H67.33ZM43.53 11.5909H45.74L48.82 21.0709H46.95L46.09 18.3809H43.09L42.27 21.0709H40.48L43.53 11.5909ZM32 43.0409C32 44.7109 30.64 46.0709 28.97 46.0709H15.97C14.3 46.0709 12.94 44.7209 12.94 43.0409V14.1609C12.94 12.4909 14.3 11.1309 15.97 11.1309H28.97C30.64 11.1309 32 12.4909 32 14.1609V43.0409ZM52.89 43.7309L51.17 38.3109H45.17L43.53 43.7309H40.47L46.4 25.2809H50.07L56.04 43.7309H52.89ZM53.56 21.0809H51.86L49.31 14.2309H51.18L52.29 17.7109C52.49 18.3109 52.63 18.8609 52.75 19.4309H52.79C52.92 18.8709 53.07 18.3309 53.25 17.7109L54.35 14.2309H56.17L53.56 21.0809ZM57.13 19.1909C57.13 17.4709 58.66 16.5909 61.2 16.6009V16.4909C61.2 16.0409 61.02 15.2909 59.81 15.2909C59.13 15.2909 58.43 15.5009 57.97 15.8009L57.63 14.6709C58.14 14.3609 59.02 14.0709 60.11 14.0709C62.3 14.0709 62.94 15.4609 62.94 16.9709V19.4309C62.94 20.0509 62.97 20.6509 63.05 21.0809H61.49L61.36 20.3209H61.32C60.91 20.8509 60.19 21.2409 59.29 21.2409C57.9 21.2309 57.13 20.2309 57.13 19.1909ZM68.7 42.2909C67.6 43.4509 66.23 44.0409 64.6 44.0409C62.83 44.0409 61.57 43.4109 60.8 42.1509V49.1409H57.85V34.8009C57.85 33.3809 57.81 31.9209 57.74 30.4309H60.34L60.5 32.5409H60.55C61.54 30.9609 63.03 30.1609 65.04 30.1609C66.61 30.1609 67.92 30.7809 68.97 32.0209C70.02 33.2609 70.54 34.9009 70.54 36.9209C70.55 39.1909 69.93 40.9709 68.7 42.2909ZM71.78 21.0809H70.05V11.0909H71.78V21.0809ZM83.32 42.2909C82.22 43.4509 80.85 44.0409 79.22 44.0409C77.46 44.0409 76.19 43.4109 75.43 42.1509V49.1409H72.47V34.8009C72.47 33.3809 72.43 31.9209 72.36 30.4309H74.95L75.12 32.5409H75.17C76.16 30.9609 77.65 30.1609 79.66 30.1609C81.23 30.1609 82.54 30.7809 83.59 32.0209C84.64 33.2609 85.17 34.9009 85.17 36.9209C85.16 39.1909 84.55 40.9709 83.32 42.2909ZM85.35 21.2309C84.46 21.2309 83.68 20.8909 83.18 20.0509H83.15L83.07 21.0809H81.59C81.62 20.6209 81.65 19.8609 81.65 19.1509V11.0909H83.38V15.1709H83.41C83.83 14.5109 84.58 14.0709 85.61 14.0709C87.28 14.0709 88.48 15.4609 88.47 17.5409C88.46 20.0109 86.89 21.2309 85.35 21.2309ZM100.23 42.3909C99.02 43.4709 97.35 44.0009 95.2 44.0009C93.21 44.0009 91.62 43.6209 90.42 42.8509L91.11 40.3909C92.4 41.1509 93.83 41.5409 95.37 41.5409C96.49 41.5409 97.35 41.2909 97.97 40.7909C98.59 40.2909 98.9 39.6209 98.9 38.7709C98.9 38.0309 98.64 37.4009 98.14 36.8909C97.62 36.3809 96.78 35.9109 95.6 35.4709C92.37 34.2709 90.76 32.5109 90.76 30.1909C90.76 28.6809 91.32 27.4309 92.47 26.4609C93.61 25.5009 95.12 25.0109 97 25.0109C98.68 25.0109 100.07 25.3009 101.19 25.8809L100.44 28.2909C99.4 27.7309 98.22 27.4409 96.9 27.4409C95.86 27.4409 95.04 27.7009 94.45 28.2009C93.96 28.6609 93.71 29.2209 93.71 29.8709C93.71 30.5909 93.99 31.2009 94.56 31.6809C95.05 32.1209 95.95 32.5909 97.24 33.1009C98.83 33.7309 100 34.4909 100.75 35.3509C101.5 36.2109 101.87 37.2709 101.87 38.5509C101.86 40.1309 101.31 41.4109 100.23 42.3909ZM110.65 32.6409H107.39V39.1109C107.39 40.7509 107.97 41.5709 109.12 41.5709C109.65 41.5709 110.08 41.5309 110.43 41.4409L110.51 43.6809C109.93 43.9009 109.16 44.0109 108.21 44.0109C107.05 44.0109 106.13 43.6609 105.47 42.9409C104.81 42.2309 104.48 41.0309 104.48 39.3609V32.6409H102.54V30.4309H104.48V28.0009L107.38 27.1209V30.4309H110.64V32.6409H110.65ZM108.98 21.2309C107.05 21.2309 105.55 19.9109 105.55 17.7009C105.55 15.4509 107.03 14.0709 109.1 14.0709C111.14 14.0709 112.51 15.5109 112.51 17.5909C112.5 20.1109 110.72 21.2309 108.98 21.2309ZM122.78 42.0109C121.55 43.3609 119.93 44.0309 117.91 44.0309C115.95 44.0309 114.39 43.3809 113.24 42.0909C112.08 40.8009 111.51 39.1609 111.51 37.1909C111.51 35.1309 112.11 33.4409 113.3 32.1309C114.5 30.8109 116.1 30.1609 118.13 30.1609C120.09 30.1609 121.66 30.8009 122.84 32.1009C123.97 33.3509 124.53 34.9809 124.53 36.9709C124.52 39.0209 123.94 40.6909 122.78 42.0109ZM125.83 14.2309H126.8V12.9409L128.5 12.4609V14.2209H130.15V15.5109H128.5V18.5409C128.5 19.3809 128.72 19.8109 129.39 19.8109C129.7 19.8109 129.87 19.8009 130.07 19.7409L130.1 21.0509C129.85 21.1509 129.38 21.2309 128.85 21.2309C128.2 21.2309 127.68 21.0209 127.36 20.6709C126.98 20.2809 126.81 19.6409 126.81 18.7409V15.5209H125.84V14.2309H125.83ZM133.42 33.0309C133.13 32.9809 132.82 32.9509 132.49 32.9509C131.45 32.9509 130.65 33.3409 130.08 34.1209C129.59 34.8209 129.34 35.6809 129.34 36.7509V43.7309H126.38V34.6109C126.38 33.0909 126.35 31.6909 126.3 30.4309H128.87L128.98 32.9809H129.06C129.37 32.1109 129.86 31.4009 130.54 30.8809C131.2 30.4009 131.91 30.1709 132.68 30.1709C132.95 30.1709 133.2 30.1809 133.41 30.2209V33.0309H133.42ZM133.87 16.9709V21.0809H132.14V11.0909H133.87V15.1609H133.9C134.11 14.8409 134.41 14.5709 134.76 14.3909C135.11 14.1909 135.52 14.0809 135.96 14.0809C137.13 14.0809 138.35 14.8509 138.35 17.0509V21.0909H136.62V17.2409C136.62 16.2509 136.25 15.4909 135.3 15.4909C134.62 15.4909 134.15 15.9409 133.95 16.4609C133.88 16.6009 133.87 16.7909 133.87 16.9709ZM146.07 37.8009H137.2C137.24 39.1109 137.66 40.1109 138.49 40.8009C139.24 41.4209 140.2 41.7309 141.39 41.7309C142.71 41.7309 143.9 41.5209 144.98 41.1009L145.45 43.1609C144.2 43.7109 142.7 43.9809 140.99 43.9809C138.93 43.9809 137.31 43.3809 136.14 42.1609C134.96 40.9509 134.37 39.3209 134.37 37.2809C134.37 35.2709 134.92 33.6009 136.01 32.2709C137.17 30.8509 138.72 30.1409 140.67 30.1409C142.59 30.1409 144.04 30.8509 145.02 32.2709C145.8 33.4009 146.2 34.8009 146.2 36.4609C146.17 36.9809 146.14 37.4309 146.07 37.8009ZM84.97 15.4209C84.27 15.4209 83.62 15.9309 83.44 16.6909C83.41 16.8209 83.38 16.9709 83.38 17.1409V18.2509C83.38 18.3909 83.39 18.5309 83.42 18.6609C83.6 19.3609 84.21 19.8709 84.95 19.8709C86.03 19.8709 86.7 19.0109 86.7 17.6209C86.7 16.4109 86.12 15.4209 84.97 15.4209ZM97.42 15.2509C96.35 15.2509 95.9 16.2209 95.83 16.9209H98.84C98.86 16.2909 98.58 15.2509 97.42 15.2509ZM109.05 15.3209C107.83 15.3209 107.33 16.5209 107.33 17.6609C107.33 18.9809 107.99 19.9809 109.03 19.9809C110.01 19.9809 110.7 19.0209 110.7 17.6309C110.71 16.5609 110.23 15.3209 109.05 15.3209ZM75.75 19.0109C75.75 19.6909 76.19 20.0009 76.73 20.0009C77.43 20.0009 77.93 19.5509 78.1 19.0609C78.14 18.9309 78.14 18.8109 78.14 18.6809V17.7409C76.92 17.7209 75.75 17.9709 75.75 19.0109ZM143.06 15.2509C141.99 15.2509 141.54 16.2209 141.47 16.9209H144.48C144.49 16.2909 144.21 15.2509 143.06 15.2509Z" fill="#D7C2FF"/>
</svg>
