<svg width="159" height="40" viewBox="0 0 159 40" fill="none" xmlns="http://www.w3.org/2000/svg">
<path d="M9.4648 19.1207C9.4648 12.7995 14.9185 7.70045 21.6792 7.65831L22.806 3.06491C22.4454 3.02277 22.0848 3.02277 21.7243 3.02277C12.2592 3.02277 4.552 10.2289 4.552 19.0786C4.552 22.9977 6.03936 26.5798 8.56337 29.3611L11.9437 25.9055C10.4113 24.0934 9.4648 21.7335 9.4648 19.1207Z" fill="url(#paint0_linear_30_3837)"/>
<path d="M29.9724 27.5912C27.809 29.4454 24.9244 30.5832 21.7243 30.5832C18.2989 30.5832 15.189 29.2347 12.9354 27.1276L9.6001 30.5411C12.71 33.4488 16.9918 35.2187 21.7243 35.2187C26.3216 35.2187 30.5133 33.5331 33.5782 30.7518L29.9724 27.5912Z" fill="url(#paint1_linear_30_3837)"/>
<path d="M24.3837 3.27563L23.302 7.78475C25.8711 8.07974 28.1697 9.13328 29.9726 10.6925L33.9389 7.86904C31.4149 5.46698 28.0796 3.82347 24.3837 3.27563Z" fill="url(#paint2_linear_30_3837)"/>
<path d="M17.2623 10.5661C13.8369 12.1253 11.4932 15.4123 11.4932 19.205C11.4932 22.9978 13.8369 26.2848 17.2623 27.844" stroke="url(#paint3_linear_30_3837)" stroke-miterlimit="10"/>
<path d="M17.2625 12.7153C18.532 12.7153 19.5612 11.753 19.5612 10.5661C19.5612 9.37909 18.532 8.41685 17.2625 8.41685C15.993 8.41685 14.9639 9.37909 14.9639 10.5661C14.9639 11.753 15.993 12.7153 17.2625 12.7153Z" fill="url(#paint4_radial_30_3837)"/>
<path d="M17.2625 12.7153C18.532 12.7153 19.5612 11.753 19.5612 10.5661C19.5612 9.37909 18.532 8.41685 17.2625 8.41685C15.993 8.41685 14.9639 9.37909 14.9639 10.5661C14.9639 11.753 15.993 12.7153 17.2625 12.7153Z" fill="black" fill-opacity="0.2"/>
<path d="M17.2625 12.7153C18.532 12.7153 19.5612 11.753 19.5612 10.5661C19.5612 9.37909 18.532 8.41685 17.2625 8.41685C15.993 8.41685 14.9639 9.37909 14.9639 10.5661C14.9639 11.753 15.993 12.7153 17.2625 12.7153Z" fill="black" fill-opacity="0.2"/>
<path d="M17.2625 12.7153C18.532 12.7153 19.5612 11.753 19.5612 10.5661C19.5612 9.37909 18.532 8.41685 17.2625 8.41685C15.993 8.41685 14.9639 9.37909 14.9639 10.5661C14.9639 11.753 15.993 12.7153 17.2625 12.7153Z" fill="black" fill-opacity="0.2"/>
<path d="M16.1804 10.5661C16.1804 11.1139 16.6762 11.5775 17.2621 11.5775C17.8481 11.5775 18.3439 11.1139 18.3439 10.5661C18.3439 10.0182 17.8481 9.55469 17.2621 9.55469C16.6311 9.55469 16.1804 10.0182 16.1804 10.5661Z" fill="url(#paint5_linear_30_3837)"/>
<path d="M17.2625 29.4454C18.532 29.4454 19.5612 28.4832 19.5612 27.2962C19.5612 26.1092 18.532 25.147 17.2625 25.147C15.993 25.147 14.9639 26.1092 14.9639 27.2962C14.9639 28.4832 15.993 29.4454 17.2625 29.4454Z" fill="url(#paint6_radial_30_3837)"/>
<path d="M17.2625 29.4454C18.532 29.4454 19.5612 28.4832 19.5612 27.2962C19.5612 26.1092 18.532 25.147 17.2625 25.147C15.993 25.147 14.9639 26.1092 14.9639 27.2962C14.9639 28.4832 15.993 29.4454 17.2625 29.4454Z" fill="black" fill-opacity="0.2"/>
<path d="M17.2625 29.4454C18.532 29.4454 19.5612 28.4832 19.5612 27.2962C19.5612 26.1092 18.532 25.147 17.2625 25.147C15.993 25.147 14.9639 26.1092 14.9639 27.2962C14.9639 28.4832 15.993 29.4454 17.2625 29.4454Z" fill="black" fill-opacity="0.2"/>
<path d="M17.2625 29.4454C18.532 29.4454 19.5612 28.4832 19.5612 27.2962C19.5612 26.1092 18.532 25.147 17.2625 25.147C15.993 25.147 14.9639 26.1092 14.9639 27.2962C14.9639 28.4832 15.993 29.4454 17.2625 29.4454Z" fill="black" fill-opacity="0.2"/>
<path d="M16.1804 27.2962C16.1804 27.844 16.6762 28.3076 17.2621 28.3076C17.8481 28.3076 18.3439 27.844 18.3439 27.2962C18.3439 26.7483 17.8481 26.2848 17.2621 26.2848C16.6311 26.2848 16.1804 26.7483 16.1804 27.2962Z" fill="url(#paint7_linear_30_3837)"/>
<path d="M34.074 33.1959C30.6936 35.8087 26.4118 37.3258 21.7244 37.3258" stroke="url(#paint8_linear_30_3837)" stroke-miterlimit="10"/>
<path d="M7.66211 6.64693C11.1777 3.14921 16.1806 1 21.7244 1C26.4119 1 30.7387 2.55923 34.074 5.12985" stroke="url(#paint9_linear_30_3837)" stroke-miterlimit="10"/>
<path d="M2.29858 19.1629C2.29858 15.4545 3.51552 11.9989 5.54374 9.09114" stroke="url(#paint10_linear_30_3837)" stroke-miterlimit="10"/>
<path d="M18.2987 37.073C10.1858 35.7244 3.83076 29.6982 2.52368 22.0706" stroke="url(#paint11_linear_30_3837)" stroke-miterlimit="10"/>
<path d="M34.074 35.4295C35.3435 35.4295 36.3727 34.4672 36.3727 33.2802C36.3727 32.0933 35.3435 31.131 34.074 31.131C32.8045 31.131 31.7754 32.0933 31.7754 33.2802C31.7754 34.4672 32.8045 35.4295 34.074 35.4295Z" fill="url(#paint12_radial_30_3837)"/>
<path d="M34.074 35.4295C35.3435 35.4295 36.3727 34.4672 36.3727 33.2802C36.3727 32.0933 35.3435 31.131 34.074 31.131C32.8045 31.131 31.7754 32.0933 31.7754 33.2802C31.7754 34.4672 32.8045 35.4295 34.074 35.4295Z" fill="black" fill-opacity="0.2"/>
<path d="M34.074 35.4295C35.3435 35.4295 36.3727 34.4672 36.3727 33.2802C36.3727 32.0933 35.3435 31.131 34.074 31.131C32.8045 31.131 31.7754 32.0933 31.7754 33.2802C31.7754 34.4672 32.8045 35.4295 34.074 35.4295Z" fill="black" fill-opacity="0.2"/>
<path d="M34.074 35.4295C35.3435 35.4295 36.3727 34.4672 36.3727 33.2802C36.3727 32.0933 35.3435 31.131 34.074 31.131C32.8045 31.131 31.7754 32.0933 31.7754 33.2802C31.7754 34.4672 32.8045 35.4295 34.074 35.4295Z" fill="black" fill-opacity="0.2"/>
<path d="M34.0741 34.2916C34.6716 34.2916 35.1559 33.8388 35.1559 33.2802C35.1559 32.7216 34.6716 32.2688 34.0741 32.2688C33.4767 32.2688 32.9924 32.7216 32.9924 33.2802C32.9924 33.8388 33.4767 34.2916 34.0741 34.2916Z" fill="url(#paint13_linear_30_3837)"/>
<path d="M22.2652 39.6857C23.5347 39.6857 24.5639 38.7235 24.5639 37.5365C24.5639 36.3495 23.5347 35.3873 22.2652 35.3873C20.9957 35.3873 19.9666 36.3495 19.9666 37.5365C19.9666 38.7235 20.9957 39.6857 22.2652 39.6857Z" fill="url(#paint14_radial_30_3837)"/>
<path d="M22.2652 39.6857C23.5347 39.6857 24.5639 38.7235 24.5639 37.5365C24.5639 36.3495 23.5347 35.3873 22.2652 35.3873C20.9957 35.3873 19.9666 36.3495 19.9666 37.5365C19.9666 38.7235 20.9957 39.6857 22.2652 39.6857Z" fill="black" fill-opacity="0.2"/>
<path d="M22.2652 39.6857C23.5347 39.6857 24.5639 38.7235 24.5639 37.5365C24.5639 36.3495 23.5347 35.3873 22.2652 35.3873C20.9957 35.3873 19.9666 36.3495 19.9666 37.5365C19.9666 38.7235 20.9957 39.6857 22.2652 39.6857Z" fill="black" fill-opacity="0.2"/>
<path d="M22.2652 39.6857C23.5347 39.6857 24.5639 38.7235 24.5639 37.5365C24.5639 36.3495 23.5347 35.3873 22.2652 35.3873C20.9957 35.3873 19.9666 36.3495 19.9666 37.5365C19.9666 38.7235 20.9957 39.6857 22.2652 39.6857Z" fill="black" fill-opacity="0.2"/>
<path d="M22.2651 38.5479C22.8625 38.5479 23.3468 38.0951 23.3468 37.5365C23.3468 36.9779 22.8625 36.5251 22.2651 36.5251C21.6677 36.5251 21.1833 36.9779 21.1833 37.5365C21.1833 38.0951 21.6677 38.5479 22.2651 38.5479Z" fill="url(#paint15_linear_30_3837)"/>
<path d="M17.9832 39.2221C19.2527 39.2221 20.2819 38.2599 20.2819 37.0729C20.2819 35.886 19.2527 34.9237 17.9832 34.9237C16.7137 34.9237 15.6846 35.886 15.6846 37.0729C15.6846 38.2599 16.7137 39.2221 17.9832 39.2221Z" fill="url(#paint16_radial_30_3837)"/>
<path d="M17.9832 39.2221C19.2527 39.2221 20.2819 38.2599 20.2819 37.0729C20.2819 35.886 19.2527 34.9237 17.9832 34.9237C16.7137 34.9237 15.6846 35.886 15.6846 37.0729C15.6846 38.2599 16.7137 39.2221 17.9832 39.2221Z" fill="black" fill-opacity="0.2"/>
<path d="M17.9832 39.2221C19.2527 39.2221 20.2819 38.2599 20.2819 37.0729C20.2819 35.886 19.2527 34.9237 17.9832 34.9237C16.7137 34.9237 15.6846 35.886 15.6846 37.0729C15.6846 38.2599 16.7137 39.2221 17.9832 39.2221Z" fill="black" fill-opacity="0.2"/>
<path d="M17.9832 39.2221C19.2527 39.2221 20.2819 38.2599 20.2819 37.0729C20.2819 35.886 19.2527 34.9237 17.9832 34.9237C16.7137 34.9237 15.6846 35.886 15.6846 37.0729C15.6846 38.2599 16.7137 39.2221 17.9832 39.2221Z" fill="black" fill-opacity="0.2"/>
<path d="M17.9833 38.0843C18.5807 38.0843 19.065 37.6315 19.065 37.0729C19.065 36.5144 18.5807 36.0615 17.9833 36.0615C17.3859 36.0615 16.9016 36.5144 16.9016 37.0729C16.9016 37.6315 17.3859 38.0843 17.9833 38.0843Z" fill="url(#paint17_linear_30_3837)"/>
<path d="M2.70417 24.8098C3.97368 24.8098 5.00282 23.8476 5.00282 22.6606C5.00282 21.4736 3.97368 20.5114 2.70417 20.5114C1.43466 20.5114 0.405518 21.4736 0.405518 22.6606C0.405518 23.8476 1.43466 24.8098 2.70417 24.8098Z" fill="url(#paint18_radial_30_3837)"/>
<path d="M2.70417 24.8098C3.97368 24.8098 5.00282 23.8476 5.00282 22.6606C5.00282 21.4736 3.97368 20.5114 2.70417 20.5114C1.43466 20.5114 0.405518 21.4736 0.405518 22.6606C0.405518 23.8476 1.43466 24.8098 2.70417 24.8098Z" fill="black" fill-opacity="0.2"/>
<path d="M2.70417 24.8098C3.97368 24.8098 5.00282 23.8476 5.00282 22.6606C5.00282 21.4736 3.97368 20.5114 2.70417 20.5114C1.43466 20.5114 0.405518 21.4736 0.405518 22.6606C0.405518 23.8476 1.43466 24.8098 2.70417 24.8098Z" fill="black" fill-opacity="0.2"/>
<path d="M2.70417 24.8098C3.97368 24.8098 5.00282 23.8476 5.00282 22.6606C5.00282 21.4736 3.97368 20.5114 2.70417 20.5114C1.43466 20.5114 0.405518 21.4736 0.405518 22.6606C0.405518 23.8476 1.43466 24.8098 2.70417 24.8098Z" fill="black" fill-opacity="0.2"/>
<path d="M2.70403 23.672C3.30145 23.672 3.78575 23.2192 3.78575 22.6606C3.78575 22.1021 3.30145 21.6492 2.70403 21.6492C2.10662 21.6492 1.62231 22.1021 1.62231 22.6606C1.62231 23.2192 2.10662 23.672 2.70403 23.672Z" fill="url(#paint19_linear_30_3837)"/>
<path d="M2.29865 20.8064C3.56816 20.8064 4.5973 19.8442 4.5973 18.6572C4.5973 17.4702 3.56816 16.508 2.29865 16.508C1.02914 16.508 0 17.4702 0 18.6572C0 19.8442 1.02914 20.8064 2.29865 20.8064Z" fill="url(#paint20_radial_30_3837)"/>
<path d="M2.29865 20.8064C3.56816 20.8064 4.5973 19.8442 4.5973 18.6572C4.5973 17.4702 3.56816 16.508 2.29865 16.508C1.02914 16.508 0 17.4702 0 18.6572C0 19.8442 1.02914 20.8064 2.29865 20.8064Z" fill="black" fill-opacity="0.2"/>
<path d="M2.29865 20.8064C3.56816 20.8064 4.5973 19.8442 4.5973 18.6572C4.5973 17.4702 3.56816 16.508 2.29865 16.508C1.02914 16.508 0 17.4702 0 18.6572C0 19.8442 1.02914 20.8064 2.29865 20.8064Z" fill="black" fill-opacity="0.2"/>
<path d="M2.29865 20.8064C3.56816 20.8064 4.5973 19.8442 4.5973 18.6572C4.5973 17.4702 3.56816 16.508 2.29865 16.508C1.02914 16.508 0 17.4702 0 18.6572C0 19.8442 1.02914 20.8064 2.29865 20.8064Z" fill="black" fill-opacity="0.2"/>
<path d="M2.29851 19.6686C2.89593 19.6686 3.38023 19.2158 3.38023 18.6572C3.38023 18.0986 2.89593 17.6458 2.29851 17.6458C1.7011 17.6458 1.2168 18.0986 1.2168 18.6572C1.2168 19.2158 1.7011 19.6686 2.29851 19.6686Z" fill="url(#paint21_linear_30_3837)"/>
<path d="M5.36335 11.7039C6.63285 11.7039 7.662 10.7417 7.662 9.55469C7.662 8.36772 6.63285 7.40549 5.36335 7.40549C4.09384 7.40549 3.0647 8.36772 3.0647 9.55469C3.0647 10.7417 4.09384 11.7039 5.36335 11.7039Z" fill="url(#paint22_radial_30_3837)"/>
<path d="M5.36335 11.7039C6.63285 11.7039 7.662 10.7417 7.662 9.55469C7.662 8.36772 6.63285 7.40549 5.36335 7.40549C4.09384 7.40549 3.0647 8.36772 3.0647 9.55469C3.0647 10.7417 4.09384 11.7039 5.36335 11.7039Z" fill="black" fill-opacity="0.2"/>
<path d="M5.36335 11.7039C6.63285 11.7039 7.662 10.7417 7.662 9.55469C7.662 8.36772 6.63285 7.40549 5.36335 7.40549C4.09384 7.40549 3.0647 8.36772 3.0647 9.55469C3.0647 10.7417 4.09384 11.7039 5.36335 11.7039Z" fill="black" fill-opacity="0.2"/>
<path d="M5.36335 11.7039C6.63285 11.7039 7.662 10.7417 7.662 9.55469C7.662 8.36772 6.63285 7.40549 5.36335 7.40549C4.09384 7.40549 3.0647 8.36772 3.0647 9.55469C3.0647 10.7417 4.09384 11.7039 5.36335 11.7039Z" fill="black" fill-opacity="0.2"/>
<path d="M5.36321 10.5661C5.96063 10.5661 6.44493 10.1132 6.44493 9.55466C6.44493 8.99609 5.96063 8.54327 5.36321 8.54327C4.7658 8.54327 4.28149 8.99609 4.28149 9.55466C4.28149 10.1132 4.7658 10.5661 5.36321 10.5661Z" fill="url(#paint23_linear_30_3837)"/>
<path d="M5.72388 6.39408C5.72388 7.57404 6.76052 8.54329 8.02253 8.54329C9.28453 8.54329 10.3212 7.57404 10.3212 6.39408C10.3212 5.21412 9.28453 4.24487 8.02253 4.24487C6.71545 4.28701 5.72388 5.21412 5.72388 6.39408Z" fill="url(#paint24_radial_30_3837)"/>
<path d="M5.72388 6.39408C5.72388 7.57404 6.76052 8.54329 8.02253 8.54329C9.28453 8.54329 10.3212 7.57404 10.3212 6.39408C10.3212 5.21412 9.28453 4.24487 8.02253 4.24487C6.71545 4.28701 5.72388 5.21412 5.72388 6.39408Z" fill="black" fill-opacity="0.2"/>
<path d="M5.72388 6.39408C5.72388 7.57404 6.76052 8.54329 8.02253 8.54329C9.28453 8.54329 10.3212 7.57404 10.3212 6.39408C10.3212 5.21412 9.28453 4.24487 8.02253 4.24487C6.71545 4.28701 5.72388 5.21412 5.72388 6.39408Z" fill="black" fill-opacity="0.2"/>
<path d="M5.72388 6.39408C5.72388 7.57404 6.76052 8.54329 8.02253 8.54329C9.28453 8.54329 10.3212 7.57404 10.3212 6.39408C10.3212 5.21412 9.28453 4.24487 8.02253 4.24487C6.71545 4.28701 5.72388 5.21412 5.72388 6.39408Z" fill="black" fill-opacity="0.2"/>
<path d="M6.896 6.3941C6.896 6.94193 7.39178 7.40549 7.97771 7.40549C8.56364 7.40549 9.05943 6.94193 9.05943 6.3941C9.05943 5.84626 8.56364 5.38271 7.97771 5.38271C7.39178 5.42485 6.896 5.84626 6.896 6.3941Z" fill="url(#paint25_linear_30_3837)"/>
<path d="M34.2542 7.36332C35.5237 7.36332 36.5529 6.40109 36.5529 5.21412C36.5529 4.02714 35.5237 3.06491 34.2542 3.06491C32.9847 3.06491 31.9556 4.02714 31.9556 5.21412C31.9556 6.40109 32.9847 7.36332 34.2542 7.36332Z" fill="url(#paint26_radial_30_3837)"/>
<path d="M34.2542 7.36332C35.5237 7.36332 36.5529 6.40109 36.5529 5.21412C36.5529 4.02714 35.5237 3.06491 34.2542 3.06491C32.9847 3.06491 31.9556 4.02714 31.9556 5.21412C31.9556 6.40109 32.9847 7.36332 34.2542 7.36332Z" fill="black" fill-opacity="0.2"/>
<path d="M34.2542 7.36332C35.5237 7.36332 36.5529 6.40109 36.5529 5.21412C36.5529 4.02714 35.5237 3.06491 34.2542 3.06491C32.9847 3.06491 31.9556 4.02714 31.9556 5.21412C31.9556 6.40109 32.9847 7.36332 34.2542 7.36332Z" fill="black" fill-opacity="0.2"/>
<path d="M34.2542 7.36332C35.5237 7.36332 36.5529 6.40109 36.5529 5.21412C36.5529 4.02714 35.5237 3.06491 34.2542 3.06491C32.9847 3.06491 31.9556 4.02714 31.9556 5.21412C31.9556 6.40109 32.9847 7.36332 34.2542 7.36332Z" fill="black" fill-opacity="0.2"/>
<path d="M34.2543 6.22551C34.8517 6.22551 35.336 5.7727 35.336 5.21412C35.336 4.65554 34.8517 4.20273 34.2543 4.20273C33.6569 4.20273 33.1726 4.65554 33.1726 5.21412C33.1726 5.7727 33.6569 6.22551 34.2543 6.22551Z" fill="url(#paint27_linear_30_3837)"/>
<path d="M38.345 20.2892C38.345 18.6252 38.705 17.1452 39.425 15.8492C40.145 14.5372 41.145 13.5212 42.425 12.8012C43.721 12.0652 45.185 11.6972 46.817 11.6972C48.817 11.6972 50.529 12.2252 51.953 13.2812C53.377 14.3372 54.329 15.7772 54.809 17.6012H50.297C49.961 16.8972 49.481 16.3612 48.857 15.9932C48.249 15.6252 47.553 15.4412 46.769 15.4412C45.505 15.4412 44.481 15.8812 43.697 16.7612C42.913 17.6412 42.521 18.8172 42.521 20.2892C42.521 21.7612 42.913 22.9372 43.697 23.8172C44.481 24.6972 45.505 25.1372 46.769 25.1372C47.553 25.1372 48.249 24.9532 48.857 24.5852C49.481 24.2172 49.961 23.6812 50.297 22.9772H54.809C54.329 24.8012 53.377 26.2412 51.953 27.2972C50.529 28.3372 48.817 28.8572 46.817 28.8572C45.185 28.8572 43.721 28.4972 42.425 27.7772C41.145 27.0412 40.145 26.0252 39.425 24.7292C38.705 23.4332 38.345 21.9532 38.345 20.2892ZM61.4262 17.5772C61.9062 16.8412 62.5062 16.2652 63.2262 15.8492C63.9462 15.4172 64.7462 15.2012 65.6262 15.2012V19.5452H64.4982C63.4742 19.5452 62.7062 19.7692 62.1942 20.2172C61.6822 20.6492 61.4262 21.4172 61.4262 22.5212V28.7372H57.3222V15.3452H61.4262V17.5772ZM81.2679 15.3452L72.8679 35.0972H68.4519L71.5239 28.2812L66.0759 15.3452H70.6599L73.7559 23.7212L76.8279 15.3452H81.2679ZM86.8559 17.2412C87.2559 16.6172 87.8079 16.1132 88.5119 15.7292C89.2159 15.3452 90.0399 15.1532 90.9839 15.1532C92.0879 15.1532 93.0879 15.4332 93.9839 15.9932C94.8799 16.5532 95.5839 17.3532 96.0959 18.3932C96.6239 19.4332 96.8879 20.6412 96.8879 22.0172C96.8879 23.3932 96.6239 24.6092 96.0959 25.6652C95.5839 26.7052 94.8799 27.5132 93.9839 28.0892C93.0879 28.6492 92.0879 28.9292 90.9839 28.9292C90.0559 28.9292 89.2319 28.7372 88.5119 28.3532C87.8079 27.9692 87.2559 27.4732 86.8559 26.8652V35.1212H82.7519V15.3452H86.8559V17.2412ZM92.7119 22.0172C92.7119 20.9932 92.4239 20.1932 91.8479 19.6172C91.2879 19.0252 90.5919 18.7292 89.7599 18.7292C88.9439 18.7292 88.2479 19.0252 87.6719 19.6172C87.1119 20.2092 86.8319 21.0172 86.8319 22.0412C86.8319 23.0652 87.1119 23.8732 87.6719 24.4652C88.2479 25.0572 88.9439 25.3532 89.7599 25.3532C90.5759 25.3532 91.2719 25.0572 91.8479 24.4652C92.4239 23.8572 92.7119 23.0412 92.7119 22.0172ZM106.505 25.2572V28.7372H104.417C102.929 28.7372 101.769 28.3772 100.937 27.6572C100.105 26.9212 99.689 25.7292 99.689 24.0812V18.7532H98.057V15.3452H99.689V12.0812H103.793V15.3452H106.481V18.7532H103.793V24.1292C103.793 24.5292 103.889 24.8172 104.081 24.9932C104.273 25.1692 104.593 25.2572 105.041 25.2572H106.505ZM114.887 28.9292C113.575 28.9292 112.391 28.6492 111.335 28.0892C110.295 27.5292 109.471 26.7292 108.863 25.6892C108.271 24.6492 107.975 23.4332 107.975 22.0412C107.975 20.6652 108.279 19.4572 108.887 18.4172C109.495 17.3612 110.327 16.5532 111.383 15.9932C112.439 15.4332 113.623 15.1532 114.935 15.1532C116.247 15.1532 117.431 15.4332 118.487 15.9932C119.543 16.5532 120.375 17.3612 120.983 18.4172C121.591 19.4572 121.895 20.6652 121.895 22.0412C121.895 23.4172 121.583 24.6332 120.959 25.6892C120.351 26.7292 119.511 27.5292 118.439 28.0892C117.383 28.6492 116.199 28.9292 114.887 28.9292ZM114.887 25.3772C115.671 25.3772 116.335 25.0892 116.879 24.5132C117.439 23.9372 117.719 23.1132 117.719 22.0412C117.719 20.9692 117.447 20.1452 116.903 19.5692C116.375 18.9932 115.719 18.7052 114.935 18.7052C114.135 18.7052 113.471 18.9932 112.943 19.5692C112.415 20.1292 112.151 20.9532 112.151 22.0412C112.151 23.1132 112.407 23.9372 112.919 24.5132C113.447 25.0892 114.103 25.3772 114.887 25.3772ZM137.296 15.3452V28.7372H133.192V26.9132C132.776 27.5052 132.208 27.9852 131.488 28.3532C130.784 28.7052 130 28.8812 129.136 28.8812C128.112 28.8812 127.208 28.6572 126.424 28.2092C125.64 27.7452 125.032 27.0812 124.6 26.2172C124.168 25.3532 123.952 24.3372 123.952 23.1692V15.3452H128.032V22.6172C128.032 23.5132 128.264 24.2092 128.728 24.7052C129.192 25.2012 129.816 25.4492 130.6 25.4492C131.4 25.4492 132.032 25.2012 132.496 24.7052C132.96 24.2092 133.192 23.5132 133.192 22.6172V15.3452H137.296ZM145.692 28.9292C144.524 28.9292 143.484 28.7292 142.572 28.3292C141.66 27.9292 140.94 27.3852 140.412 26.6972C139.884 25.9932 139.588 25.2092 139.524 24.3452H143.58C143.628 24.8092 143.844 25.1852 144.228 25.4732C144.612 25.7612 145.084 25.9052 145.644 25.9052C146.156 25.9052 146.548 25.8092 146.82 25.6172C147.108 25.4092 147.252 25.1452 147.252 24.8252C147.252 24.4412 147.052 24.1612 146.652 23.9852C146.252 23.7932 145.604 23.5852 144.708 23.3612C143.748 23.1372 142.948 22.9052 142.308 22.6652C141.668 22.4092 141.116 22.0172 140.652 21.4892C140.188 20.9452 139.956 20.2172 139.956 19.3052C139.956 18.5372 140.164 17.8412 140.58 17.2172C141.012 16.5772 141.636 16.0732 142.452 15.7052C143.284 15.3372 144.268 15.1532 145.404 15.1532C147.084 15.1532 148.404 15.5692 149.364 16.4012C150.34 17.2332 150.9 18.3372 151.044 19.7132H147.252C147.188 19.2492 146.98 18.8812 146.628 18.6092C146.292 18.3372 145.844 18.2012 145.284 18.2012C144.804 18.2012 144.436 18.2972 144.18 18.4892C143.924 18.6652 143.796 18.9132 143.796 19.2332C143.796 19.6172 143.996 19.9052 144.396 20.0972C144.812 20.2892 145.452 20.4812 146.316 20.6732C147.308 20.9292 148.116 21.1852 148.74 21.4412C149.364 21.6812 149.908 22.0812 150.372 22.6412C150.852 23.1852 151.1 23.9212 151.116 24.8492C151.116 25.6332 150.892 26.3372 150.444 26.9612C150.012 27.5692 149.38 28.0492 148.548 28.4012C147.732 28.7532 146.78 28.9292 145.692 28.9292Z" fill="white"/>
<defs>
<linearGradient id="paint0_linear_30_3837" x1="13.6819" y1="13.6398" x2="13.6819" y2="39.3567" gradientUnits="userSpaceOnUse">
<stop offset="0.0873016" stop-color="#EB5757"/>
<stop offset="0.9709" stop-color="#3C53D7"/>
</linearGradient>
<linearGradient id="paint1_linear_30_3837" x1="21.593" y1="30.3892" x2="21.593" y2="38.2894" gradientUnits="userSpaceOnUse">
<stop offset="0.0873016" stop-color="#EB5757"/>
<stop offset="0.9709" stop-color="#3C53D7"/>
</linearGradient>
<linearGradient id="paint2_linear_30_3837" x1="28.6222" y1="6.2654" x2="28.6222" y2="13.5073" gradientUnits="userSpaceOnUse">
<stop offset="0.0873016" stop-color="#EB5757"/>
<stop offset="0.9709" stop-color="#3C53D7"/>
</linearGradient>
<linearGradient id="paint3_linear_30_3837" x1="14.3787" y1="17.5309" x2="14.3787" y2="34.4011" gradientUnits="userSpaceOnUse">
<stop offset="0.0873016" stop-color="#EB5757"/>
<stop offset="0.9709" stop-color="#3C53D7"/>
</linearGradient>
<radialGradient id="paint4_radial_30_3837" cx="0" cy="0" r="1" gradientUnits="userSpaceOnUse" gradientTransform="translate(17.283 10.5653) scale(2.08587 1.95026)">
<stop stop-color="#7F00FE"/>
<stop offset="1" stop-color="#450528" stop-opacity="0"/>
</radialGradient>
<linearGradient id="paint5_linear_30_3837" x1="17.2625" y1="10.3701" x2="17.2625" y2="12.3451" gradientUnits="userSpaceOnUse">
<stop offset="0.0873016" stop-color="#EB5757"/>
<stop offset="0.9709" stop-color="#3C53D7"/>
</linearGradient>
<radialGradient id="paint6_radial_30_3837" cx="0" cy="0" r="1" gradientUnits="userSpaceOnUse" gradientTransform="translate(17.283 27.2954) scale(2.08587 1.95026)">
<stop stop-color="#7F00FE"/>
<stop offset="1" stop-color="#450528" stop-opacity="0"/>
</radialGradient>
<linearGradient id="paint7_linear_30_3837" x1="17.2625" y1="27.1002" x2="17.2625" y2="29.0752" gradientUnits="userSpaceOnUse">
<stop offset="0.0873016" stop-color="#EB5757"/>
<stop offset="0.9709" stop-color="#3C53D7"/>
</linearGradient>
<linearGradient id="paint8_linear_30_3837" x1="27.9011" y1="34.8607" x2="27.9011" y2="38.8931" gradientUnits="userSpaceOnUse">
<stop offset="0.0873016" stop-color="#EB5757"/>
<stop offset="0.9709" stop-color="#3C53D7"/>
</linearGradient>
<linearGradient id="paint9_linear_30_3837" x1="20.8723" y1="3.2763" x2="20.8723" y2="8.79" gradientUnits="userSpaceOnUse">
<stop offset="0.0873016" stop-color="#EB5757"/>
<stop offset="0.9709" stop-color="#3C53D7"/>
</linearGradient>
<linearGradient id="paint10_linear_30_3837" x1="3.92168" y1="13.1511" x2="3.92168" y2="22.9852" gradientUnits="userSpaceOnUse">
<stop offset="0.0873016" stop-color="#EB5757"/>
<stop offset="0.9709" stop-color="#3C53D7"/>
</linearGradient>
<linearGradient id="paint11_linear_30_3837" x1="10.4137" y1="28.1181" x2="10.4137" y2="42.7665" gradientUnits="userSpaceOnUse">
<stop offset="0.0873016" stop-color="#EB5757"/>
<stop offset="0.9709" stop-color="#3C53D7"/>
</linearGradient>
<radialGradient id="paint12_radial_30_3837" cx="0" cy="0" r="1" gradientUnits="userSpaceOnUse" gradientTransform="translate(34.0945 33.2794) scale(2.08587 1.95026)">
<stop stop-color="#7F00FE"/>
<stop offset="1" stop-color="#450528" stop-opacity="0"/>
</radialGradient>
<linearGradient id="paint13_linear_30_3837" x1="34.0745" y1="33.0842" x2="34.0745" y2="35.0593" gradientUnits="userSpaceOnUse">
<stop offset="0.0873016" stop-color="#EB5757"/>
<stop offset="0.9709" stop-color="#3C53D7"/>
</linearGradient>
<radialGradient id="paint14_radial_30_3837" cx="0" cy="0" r="1" gradientUnits="userSpaceOnUse" gradientTransform="translate(22.2857 37.5357) scale(2.08587 1.95026)">
<stop stop-color="#7F00FE"/>
<stop offset="1" stop-color="#450528" stop-opacity="0"/>
</radialGradient>
<linearGradient id="paint15_linear_30_3837" x1="22.2654" y1="37.3405" x2="22.2654" y2="39.3155" gradientUnits="userSpaceOnUse">
<stop offset="0.0873016" stop-color="#EB5757"/>
<stop offset="0.9709" stop-color="#3C53D7"/>
</linearGradient>
<radialGradient id="paint16_radial_30_3837" cx="0" cy="0" r="1" gradientUnits="userSpaceOnUse" gradientTransform="translate(18.0037 37.0721) scale(2.08587 1.95026)">
<stop stop-color="#7F00FE"/>
<stop offset="1" stop-color="#450528" stop-opacity="0"/>
</radialGradient>
<linearGradient id="paint17_linear_30_3837" x1="17.9837" y1="36.8769" x2="17.9837" y2="38.852" gradientUnits="userSpaceOnUse">
<stop offset="0.0873016" stop-color="#EB5757"/>
<stop offset="0.9709" stop-color="#3C53D7"/>
</linearGradient>
<radialGradient id="paint18_radial_30_3837" cx="0" cy="0" r="1" gradientUnits="userSpaceOnUse" gradientTransform="translate(2.72467 22.6598) scale(2.08587 1.95026)">
<stop stop-color="#7F00FE"/>
<stop offset="1" stop-color="#450528" stop-opacity="0"/>
</radialGradient>
<linearGradient id="paint19_linear_30_3837" x1="2.70438" y1="22.4646" x2="2.70438" y2="24.4397" gradientUnits="userSpaceOnUse">
<stop offset="0.0873016" stop-color="#EB5757"/>
<stop offset="0.9709" stop-color="#3C53D7"/>
</linearGradient>
<radialGradient id="paint20_radial_30_3837" cx="0" cy="0" r="1" gradientUnits="userSpaceOnUse" gradientTransform="translate(2.31916 18.6564) scale(2.08587 1.95026)">
<stop stop-color="#7F00FE"/>
<stop offset="1" stop-color="#450528" stop-opacity="0"/>
</radialGradient>
<linearGradient id="paint21_linear_30_3837" x1="2.29886" y1="18.4612" x2="2.29886" y2="20.4363" gradientUnits="userSpaceOnUse">
<stop offset="0.0873016" stop-color="#EB5757"/>
<stop offset="0.9709" stop-color="#3C53D7"/>
</linearGradient>
<radialGradient id="paint22_radial_30_3837" cx="0" cy="0" r="1" gradientUnits="userSpaceOnUse" gradientTransform="translate(5.38385 9.55389) scale(2.08587 1.95026)">
<stop stop-color="#7F00FE"/>
<stop offset="1" stop-color="#450528" stop-opacity="0"/>
</radialGradient>
<linearGradient id="paint23_linear_30_3837" x1="5.36356" y1="9.35866" x2="5.36356" y2="11.3337" gradientUnits="userSpaceOnUse">
<stop offset="0.0873016" stop-color="#EB5757"/>
<stop offset="0.9709" stop-color="#3C53D7"/>
</linearGradient>
<radialGradient id="paint24_radial_30_3837" cx="0" cy="0" r="1" gradientUnits="userSpaceOnUse" gradientTransform="translate(8.04303 6.39328) scale(2.08587 1.95026)">
<stop stop-color="#7F00FE"/>
<stop offset="1" stop-color="#450528" stop-opacity="0"/>
</radialGradient>
<linearGradient id="paint25_linear_30_3837" x1="7.97806" y1="6.1981" x2="7.97806" y2="8.17315" gradientUnits="userSpaceOnUse">
<stop offset="0.0873016" stop-color="#EB5757"/>
<stop offset="0.9709" stop-color="#3C53D7"/>
</linearGradient>
<radialGradient id="paint26_radial_30_3837" cx="0" cy="0" r="1" gradientUnits="userSpaceOnUse" gradientTransform="translate(34.2747 5.21332) scale(2.08587 1.95026)">
<stop stop-color="#7F00FE"/>
<stop offset="1" stop-color="#450528" stop-opacity="0"/>
</radialGradient>
<linearGradient id="paint27_linear_30_3837" x1="34.2547" y1="5.01812" x2="34.2547" y2="6.99318" gradientUnits="userSpaceOnUse">
<stop offset="0.0873016" stop-color="#EB5757"/>
<stop offset="0.9709" stop-color="#3C53D7"/>
</linearGradient>
</defs>
</svg>
